PathFileType	4	(X/Y/Z)	29_2_28_p1_0-243_filt_butterworth.trc
DataRate	CameraRate	NumFrames	NumMarkers	Units	OrigDataRate	OrigDataStartFrame	OrigNumFrames
59.0	59.0	6	27	m	59.0	212	243
Frame#	Time	RHip			RKnee			RAnkle			RBigToe			RSmallToe			RHeel			LHip			LKnee			LAnkle			LBigToe			LSmallToe			LHeel			Neck			Head			Nose			RShoulder			RElbow			RWrist			RThumb			RIndex			RPinky			LShoulder			LElbow			LWrist			LThumb			LIndex			LPinky			
		X1	Y1	Z1	X2	Y2	Z2	X3	Y3	Z3	X4	Y4	Z4	X5	Y5	Z5	X6	Y6	Z6	X7	Y7	Z7	X8	Y8	Z8	X9	Y9	Z9	X10	Y10	Z10	X11	Y11	Z11	X12	Y12	Z12	X13	Y13	Z13	X14	Y14	Z14	X15	Y15	Z15	X16	Y16	Z16	X17	Y17	Z17	X18	Y18	Z18	X19	Y19	Z19	X20	Y20	Z20	X21	Y21	Z21	X22	Y22	Z22	X23	Y23	Z23	X24	Y24	Z24	X25	Y25	Z25	X26	Y26	Z26	X27	Y27	Z27	
212	3.593220338983051	0.3545493458747369	0.778125692076626	0.7845171576921542	0.3366102796138221	0.34039236823952745	0.7993770881308196	0.3033358927582466	-0.10035060894760031	0.826784682785419	0.29256933374768324	-0.09068362052126701	0.6257469704868333	0.3563851587428001	-0.05900545163860121	0.6146846781049559	0.274708007262473	-0.17831974568099832	0.905026407951791	0.13284384039349376	0.7619843883824979	0.7765759982697752	0.11846323059082003	0.3663906854210375	0.7712602307433135	0.10408568294954412	-0.07874534971820393	0.8004259649739719	0.12605275321437193	-0.04648807377633837	0.5928799993061604	0.06600112224456081	-0.057847971268920245	0.6350201186292388	0.12453605449040278	-0.1452528653220384	0.8787860775281533	0.25648571360319244	1.359883062099054	0.7862652094980971	0.24765686954284255	1.6114226609892022	0.7404475608978092	0.2663462862834784	1.5052898547925382	0.6292612120179626	0.4091398715609992	1.2624602795997546	0.7434972265929429	0.45599683859302503	1.0022112637176532	0.7092972617408886	0.3162542714729143	0.8506221646448806	0.5680115922608997	0.23911550177403232	0.7799493510224602	0.568760250366124	0.22800682233558028	0.7542536077199606	0.5863726232497594	0.23201477517487373	0.736922947257653	0.5979358689240908	0.10381894173123139	1.2641980732381408	0.7399641701013697	0.05542952230511752	0.9948998309516717	0.7119344480363725	0.1695266585464711	0.8595787592945272	0.5777879711316775	0.2628168294840665	0.8144632721620545	0.5516882127420573	0.26659539637255547	0.7908330584206676	0.5504593449924131	0.24462030443147645	0.7358696240985985	0.5855303926360699	
213	3.610169491525424	0.35439918707099244	0.7789572105497228	0.7838761674147564	0.3363371022237805	0.3406983516082892	0.7991934800197712	0.3034764410458202	-0.10082756425386255	0.8275427543319059	0.29304007783677327	-0.09092457518130537	0.6261277016755138	0.3565183701071314	-0.058748031000018755	0.6142759138420483	0.2746328166648927	-0.17771596098700526	0.9048845379813353	0.13292364318751188	0.7627578003058599	0.7766628627133709	0.11838859069995938	0.3655644906986041	0.7711315784537244	0.10402312919463123	-0.07872406901102123	0.8003734939349894	0.12603008060325474	-0.04655917204762913	0.5929010954587863	0.06614031321472463	-0.05779275157735249	0.6349991453551447	0.12451548838262673	-0.14521339258731955	0.8787235177044503	0.2583885285206518	1.3599936510282125	0.7876321692416308	0.24822789828199993	1.6120295500713735	0.7428764845820733	0.2663184154717213	1.5058247111040002	0.6283475913585659	0.40980195033033806	1.262110761424832	0.7418048072074908	0.4558081111174004	1.0013284146750125	0.7091019537023298	0.3172548062367035	0.8487566466520617	0.5681742412135495	0.23909595601667777	0.7804907027618159	0.5701326621329799	0.22663044004276994	0.7534571081371879	0.5896439915414835	0.23202200714950932	0.735880207765702	0.5979608449691309	0.1066697250436067	1.2645522061175303	0.7439718040355094	0.05582265871580887	0.9963088437448587	0.7111840914676284	0.1696915559901637	0.8583476334078453	0.578864286881688	0.2604703628358354	0.8127954774560537	0.5562986925924674	0.2635077398038219	0.7887090454836646	0.5553437378136105	0.244771153980604	0.7350534612199818	0.5864631647064713	
214	3.6271186440677967	0.35439652484599554	0.7798800438465765	0.783054626127147	0.33612101389798493	0.34110193779508174	0.7990191995915106	0.30354918735205616	-0.10150141384416964	0.8283743946113922	0.29292033274355256	-0.09067216777931536	0.6257637837850193	0.35645524200917433	-0.05885008064358574	0.6143601804857678	0.27457409180665093	-0.17718360353073678	0.9047961724182504	0.1330025378389528	0.763600861877358	0.7767260494123127	0.11834710071271132	0.3646673788054949	0.7709361944950398	0.10409868640034842	-0.07875437818685518	0.8003969548742691	0.12599913254289413	-0.04667793679520167	0.5929639200046745	0.0662270935060755	-0.05773714775718966	0.6349810140127328	0.12448465589520057	-0.14516231475929087	0.8786388200146685	0.260507609423777	1.3604308570740182	0.788150121965352	0.24931766208333872	1.6126584803588913	0.7464419699590126	0.2664461051703523	1.5066682216042004	0.6283138391377723	0.4102275779623944	1.2614204264147288	0.7409652914285247	0.4558484618962842	1.0010743780978697	0.7095362341673841	0.3188140405471408	0.8471387501125858	0.5690571373346323	0.23851609684539216	0.7824120664675532	0.5721695745093354	0.2246958216801217	0.7541181932605567	0.5944998989620963	0.23217740484076366	0.7361177233944995	0.5975124789265762	0.1095120686716243	1.2649137250427838	0.7481796693559244	0.05581706380815206	0.9980344248074086	0.7113369052767693	0.1695736658232298	0.858298759969379	0.5793205562079384	0.2590839327219411	0.813629605139248	0.5602347728376703	0.26171353953038934	0.7888154429683057	0.5586023065469766	0.2443030102627374	0.7363861827267246	0.5853944411812408	
215	3.6440677966101696	0.35453731928959353	0.7808210860625553	0.7821026948425311	0.33597430674860485	0.3415563393649384	0.7988933199722857	0.30356885656766475	-0.10233350372812036	0.8292298113281367	0.29237502174353536	-0.09033528507533091	0.6252627844453219	0.356065571413571	-0.059576330799689284	0.6153414373880081	0.27453373896287037	-0.1768079180007933	0.9047517923951554	0.1330875281596601	0.7645735877563526	0.7767810300315153	0.11832511733599144	0.36375963047051363	0.7707029310955655	0.10433539078406409	-0.07884399907843469	0.8005098113624702	0.12598268798121665	-0.04675990729390721	0.5930473366401677	0.06626355078287102	-0.05769034893563885	0.6349729431418659	0.12444452817762804	-0.14509824494680415	0.8785296631799258	0.26263041685115346	1.3609950405731623	0.7881089108146069	0.25105530605654797	1.6131212449680277	0.7507318270934735	0.26683043063054485	1.5077636744319605	0.6288445687881601	0.4103844672208599	1.2605020995027818	0.7409696953702374	0.4560052129868428	1.0014846258414025	0.7101181920365924	0.32037867823789096	0.8460272809764374	0.5707574891744233	0.23753023483292968	0.7849180192425441	0.5746248124859228	0.22290739170424	0.7557938545638957	0.6004772111242607	0.23246942785625546	0.7377805655357133	0.5970502523878973	0.11209996047709181	1.2651819571964555	0.7525048640505565	0.05584556182370533	1.0001395087341125	0.7115164887134302	0.1692555633022036	0.8592411509789247	0.5790237817844014	0.2585548697781303	0.8161877059289231	0.5631611892486171	0.26118867760844094	0.7907456630072773	0.5598472955423093	0.24333745086026098	0.7393188934849632	0.582857693258761	
216	3.6610169491525424	0.3548367167926043	0.7817310318255172	0.781071286744782	0.3359245199692187	0.3420120290503066	0.7988709342675577	0.3035656594339302	-0.10319396086722442	0.8299346186141867	0.29162519788254654	-0.09012889938404842	0.6249466081210416	0.3553603443169211	-0.06091705982956332	0.617223699453555	0.2745094381324834	-0.17661224605540746	0.9047366257585497	0.1331738481064088	0.7657352189880026	0.7768810460749032	0.11831458508623986	0.3629582993343266	0.7704627974491985	0.10467109128064007	-0.07896999138717667	0.8006795955829467	0.12598157179940847	-0.046798290280061994	0.5931270018847359	0.06627437783473869	-0.057661107195053754	0.6349834844850862	0.12440155110299678	-0.14502222276872775	0.878401372659829	0.2646185494595693	1.361439332625461	0.7879421206482546	0.2533877213259086	1.6133691438768198	0.7551823930353712	0.26745749744772723	1.5090169807534646	0.629456629532925	0.4103262366037859	1.2595570324108332	0.7414605388112834	0.4561856427777423	1.0022856361063877	0.7105007619949947	0.3216931567072261	0.8456753025858944	0.5729290607816839	0.23630705405123942	0.7873286378804593	0.5772848010414999	0.22170035935817822	0.7579229912665946	0.6067954300629764	0.23279503927397155	0.74051353801207	0.5969857890324473	0.11433700163251334	1.2652016724615183	0.7571088698874917	0.056331262099434905	1.002649446074115	0.7108421968847551	0.16895067867769104	0.8607875647434671	0.5783803685320703	0.25875297804533004	0.8192709032082615	0.5654444059714081	0.2616575623276572	0.7935230923230547	0.5596382396312725	0.24211420945310022	0.7431249038317171	0.5796887317968199	
217	3.6779661016949152	0.3552953058373745	0.7826091996792018	0.7800047898261604	0.336000930492015	0.34241248305336114	0.7989956187997915	0.3035448530279624	-0.10390938901004465	0.8303036507570745	0.29083684545963756	-0.0900403938502995	0.6247982571399322	0.35444338221545874	-0.06267533234987754	0.6197284728589971	0.2745003718972949	-0.17657457867315068	0.9047485522511409	0.13323116403295196	0.7670701074233867	0.7771188334336466	0.11831706307151506	0.3623748646598598	0.7702598118584865	0.10499951998769394	-0.07909242699243184	0.8008490166007107	0.1259916361224972	-0.04680404129601971	0.5931834953360428	0.0662686385782523	-0.05765102912840843	0.6350126924905153	0.12436569181702224	-0.14494402358117175	0.8782744015641502	0.2663794253475995	1.3616550753484344	0.7878883204396503	0.2560860262751313	1.6134163091936162	0.7593913109361157	0.2682196691500375	1.5103005631708442	0.6298111202529473	0.41015704433627176	1.2588558279548612	0.7419572888803452	0.45635969192546183	1.0030787917415114	0.7106440439342102	0.32275978631240876	0.8461755695048679	0.5748547664261853	0.23503768894531807	0.7892235252521496	0.5798789587970201	0.2210469480373492	0.7600503330736164	0.6125669777011662	0.23294576000808032	0.7435851368415964	0.5976577890341068	0.11624620234057384	1.2648691928514575	0.7621167664113289	0.0574900772163704	1.0053523730300085	0.709060587822715	0.1687967437144515	0.8625494563176723	0.5778233096312335	0.2595494971603376	0.8217713329639627	0.5678261572610757	0.2626624947335019	0.7961806094997587	0.55906297807042	0.24082907699516054	0.7470166333386	0.5765234786127343	
